<svg version="1.1" id="Layer_1" xmlns="http://www.w3.org/2000/svg" xmlns:xlink="http://www.w3.org/1999/xlink" x="0px" y="0px" viewBox="0 0 500 500" style="width: 148px;" xml:space="preserve" data-imageid="order-confirmed-1-76" imageName="Order Confirmed 1" class="illustrations_image">
<style type="text/css">
	.st0_order-confirmed-1-76{fill:#68E1FD;}
	.st1_order-confirmed-1-76{fill:#093F68;}
	.st2_order-confirmed-1-76{fill:#FFBC0E;}
	.st3_order-confirmed-1-76{fill:#FFFFFF;}
	.st4_order-confirmed-1-76{fill:#DFEAEF;}
	.st5_order-confirmed-1-76{fill:#70CC40;}
</style>
<g id="box_order-confirmed-1-76">
	<path class="st0_order-confirmed-1-76 targetColor" d="M91.8,126.4h298.7c5,0,9.1,4.1,9.1,9.1v18.9c0,5-4.1,9.1-9.1,9.1H91.8c-5,0-9.1-4.1-9.1-9.1v-18.9&#10;&#9;&#9;C82.7,130.5,86.8,126.4,91.8,126.4z" style="fill: rgb(104, 225, 253);"/>
	<path class="st1_order-confirmed-1-76" d="M388,165.3H94.4c-7.4,0-13.5-6-13.5-13.5V138c0-7.4,6-13.5,13.5-13.5H388c7.4,0,13.5,6,13.5,13.5v13.8&#10;&#9;&#9;C401.5,159.3,395.5,165.3,388,165.3C388,165.3,388,165.3,388,165.3z M94.4,128.2c-5.4,0-9.8,4.4-9.9,9.8v13.8&#10;&#9;&#9;c0,5.4,4.4,9.9,9.9,9.9H388c5.4,0,9.9-4.4,9.9-9.9V138c0-5.4-4.4-9.9-9.9-9.9L94.4,128.2z"/>
	<path class="st0_order-confirmed-1-76 targetColor" d="M99.1,163.5h284.3c1.2,0,2.2,1,2.2,2.2l0,0v176.6c0,4.7-3.8,8.6-8.6,8.6c0,0,0,0,0,0H105.4&#10;&#9;&#9;c-4.7,0-8.6-3.8-8.6-8.6l0,0V165.7C96.9,164.5,97.8,163.5,99.1,163.5C99,163.5,99,163.5,99.1,163.5z" style="fill: rgb(104, 225, 253);"/>
	<path class="st1_order-confirmed-1-76" d="M374,352.7H108.3c-7.3,0-13.3-6-13.3-13.3V163.5c0-1,0.8-1.8,1.8-1.8h288.7c1,0,1.8,0.8,1.8,1.8v175.9&#10;&#9;&#9;C387.3,346.7,381.3,352.7,374,352.7z M98.7,165.3v174.1c0,5.3,4.3,9.7,9.7,9.7H374c5.3,0,9.7-4.3,9.7-9.7V165.3H98.7z"/>
	<polygon class="st2_order-confirmed-1-76" points="263.5,126.4 263.5,207.4 256,199.5 248.6,207.4 241.2,199.5 233.8,207.4 226.3,199.5 218.9,207.4 &#10;&#9;&#9;218.9,126.4 &#9;"/>
	<path class="st1_order-confirmed-1-76" d="M218.9,209.2c-0.2,0-0.5,0-0.7-0.1c-0.7-0.3-1.1-0.9-1.1-1.7v-81c0-1,0.8-1.8,1.8-1.8h44.6&#10;&#9;&#9;c1,0,1.8,0.8,1.8,1.8v81c0,1-0.8,1.8-1.8,1.8c-0.5,0-1-0.2-1.3-0.6l-6.2-6.5l-6.1,6.5c-0.3,0.4-0.8,0.6-1.3,0.6l0,0&#10;&#9;&#9;c-0.5,0-1-0.2-1.3-0.6l-6.1-6.5l-6.1,6.5c-0.7,0.7-1.9,0.7-2.6,0l-6.1-6.5l-6.1,6.5C219.9,209,219.4,209.2,218.9,209.2z&#10;&#9;&#9; M226.3,197.7c0.5,0,1,0.2,1.3,0.6l6.1,6.5l6.1-6.5c0.3-0.4,0.8-0.6,1.3-0.6l0,0c0.5,0,1,0.2,1.3,0.6l6.1,6.5l6.1-6.5&#10;&#9;&#9;c0.7-0.7,1.9-0.7,2.6,0l4.3,4.6v-74.7h-41v74.7l4.3-4.6C225.3,197.9,225.8,197.7,226.3,197.7L226.3,197.7z"/>
	<path class="st1_order-confirmed-1-76" d="M182.7,325.9h-60.8c-1,0-1.8-0.8-1.8-1.8v-42.7c0-1,0.8-1.8,1.8-1.8h60.8c1,0,1.8,0.8,1.8,1.8c0,0,0,0,0,0&#10;&#9;&#9;v42.7C184.5,325.1,183.7,325.9,182.7,325.9z M123.7,322.3h57.2v-39.1h-57.2L123.7,322.3z"/>
	<path class="st1_order-confirmed-1-76" d="M181.4,268.9h-58.3c-1,0-1.8-0.8-1.8-1.8c0-1,0.8-1.8,1.8-1.8h58.3c1,0,1.8,0.8,1.8,1.8&#10;&#9;&#9;C183.2,268.1,182.4,268.9,181.4,268.9L181.4,268.9z"/>
</g>
<g id="list_order-confirmed-1-76">
	<path class="st3_order-confirmed-1-76" d="M410.8,373.6H275.9c-3.6,0-6.5-2.9-6.5-6.5c0,0,0,0,0,0V238.6l29.6-35.1h111.8c3.6,0,6.5,2.9,6.5,6.5&#10;&#9;&#9;c0,0,0,0,0,0v157.1C417.3,370.7,414.4,373.6,410.8,373.6C410.8,373.6,410.8,373.6,410.8,373.6z"/>
	<path class="st1_order-confirmed-1-76" d="M410.8,375.4H275.9c-4.6,0-8.3-3.7-8.3-8.3V238.6c0-0.4,0.2-0.8,0.4-1.2l29.6-35.1c0.3-0.4,0.8-0.6,1.4-0.6&#10;&#9;&#9;h111.8c4.6,0,8.3,3.7,8.3,8.3v157.1C419.1,371.7,415.4,375.4,410.8,375.4z M271.2,239.3v127.8c0,2.6,2.1,4.7,4.7,4.7h135&#10;&#9;&#9;c2.6,0,4.7-2.1,4.7-4.7V210.1c0-2.6-2.1-4.7-4.7-4.7h-111L271.2,239.3z"/>
	<path class="st3_order-confirmed-1-76" d="M269.4,238.6h23.1c3.6,0,6.5-2.9,6.5-6.5c0,0,0,0,0,0v-28.6L269.4,238.6z"/>
	<path class="st1_order-confirmed-1-76" d="M292.5,240.4h-23.1c-1,0-1.8-0.8-1.8-1.8c0-0.5,0.2-0.9,0.5-1.2l29.6-35.1c0.6-0.8,1.8-0.9,2.5-0.2&#10;&#9;&#9;c0.4,0.3,0.6,0.9,0.6,1.4v28.6C300.8,236.7,297.1,240.4,292.5,240.4C292.5,240.4,292.5,240.4,292.5,240.4z M273.2,236.8h19.2&#10;&#9;&#9;c2.6,0,4.7-2.1,4.7-4.7v-23.6L273.2,236.8z"/>
	<path class="st4_order-confirmed-1-76" d="M394.8,322.2h-15.5c-1,0-1.8-0.8-1.8-1.8c0-1,0.8-1.8,1.8-1.8h15.5c1,0,1.8,0.8,1.8,1.8&#10;&#9;&#9;C396.6,321.4,395.8,322.2,394.8,322.2z"/>
	<path class="st4_order-confirmed-1-76" d="M362.5,322.2H295c-1,0-1.8-0.8-1.8-1.8c0-1,0.8-1.8,1.8-1.8h67.5c1,0,1.8,0.8,1.8,1.8&#10;&#9;&#9;C364.3,321.4,363.5,322.2,362.5,322.2z"/>
	<path class="st4_order-confirmed-1-76" d="M394.8,338.1h-57.2c-1,0-1.8-0.8-1.8-1.8c0-1,0.8-1.8,1.8-1.8h57.2c1,0,1.8,0.8,1.8,1.8&#10;&#9;&#9;C396.6,337.3,395.8,338.1,394.8,338.1L394.8,338.1z"/>
	<path class="st4_order-confirmed-1-76" d="M322,338.1h-27c-1,0-1.8-0.8-1.8-1.8c0-1,0.8-1.8,1.8-1.8h27c1,0,1.8,0.8,1.8,1.8&#10;&#9;&#9;C323.8,337.3,323,338.1,322,338.1z"/>
	<path class="st4_order-confirmed-1-76" d="M358.9,354H295c-1,0-1.8-0.8-1.8-1.8c0-1,0.8-1.8,1.8-1.8h63.9c1,0,1.8,0.8,1.8,1.8&#10;&#9;&#9;C360.7,353.2,359.9,354,358.9,354L358.9,354z"/>
</g>
<g id="check-mark_order-confirmed-1-76">
	<path class="st5_order-confirmed-1-76" d="M326.8,296.5l-26-28.6c-2-2.2-1.8-5.6,0.4-7.6l7.2-6.6c2.2-2,5.6-1.8,7.6,0.4l15.6,17.2l43.1-40.1&#10;&#9;&#9;c2.2-2,5.6-1.9,7.6,0.3l6.6,7.2c2,2.2,1.9,5.6-0.3,7.6l-54.4,50.6C332.2,298.8,328.8,298.7,326.8,296.5&#10;&#9;&#9;C326.8,296.5,326.8,296.5,326.8,296.5z"/>
	<path class="st1_order-confirmed-1-76" d="M330.7,300h-0.3c-1.9-0.1-3.7-0.9-5-2.3l-26-28.6c-2.7-2.9-2.4-7.5,0.5-10.1l7.2-6.6c2.9-2.7,7.5-2.4,10.1,0.5&#10;&#9;&#9;l14.4,15.9l41.8-38.8c2.9-2.7,7.5-2.5,10.2,0.4l6.6,7.1c2.7,2.9,2.5,7.5-0.4,10.1l-54.4,50.6C334.2,299.4,332.5,300,330.7,300z&#10;&#9;&#9; M312,254.1c-0.9,0-1.8,0.3-2.4,0.9l-7.2,6.6c-1.5,1.3-1.6,3.6-0.2,5.1l26,28.6l0,0c0.6,0.7,1.5,1.1,2.5,1.1&#10;&#9;&#9;c0.9,0.1,1.9-0.3,2.5-0.9l54.4-50.6c1.4-1.3,1.5-3.6,0.2-5.1l-6.7-7.1c-0.6-0.7-1.5-1.1-2.5-1.1c-1,0-1.9,0.3-2.6,1l-43.1,40.1&#10;&#9;&#9;c-0.7,0.7-1.9,0.6-2.5-0.1c0,0,0,0,0,0l-15.6-17.2C313.9,254.6,313,254.1,312,254.1z"/>
</g>
</svg>